<?xml version="1.0" encoding="UTF-8"?>
<!DOCTYPE svg PUBLIC "-//W3C//DTD SVG 1.1//EN" "http://www.w3.org/Graphics/SVG/1.1/DTD/svg11.dtd">
<!-- Creator: CorelDRAW -->
<svg xmlns="http://www.w3.org/2000/svg" xml:space="preserve" width="200mm" height="80mm" version="1.1" style="shape-rendering:geometricPrecision; text-rendering:geometricPrecision; image-rendering:optimizeQuality; fill-rule:evenodd; clip-rule:evenodd"
viewBox="0 0 20000 8000"
 xmlns:xlink="http://www.w3.org/1999/xlink"
 xmlns:xodm="http://www.corel.com/coreldraw/odm/2003">
 <defs>
  <style type="text/css">
   <![CDATA[
    .fil1 {fill:#C49A4B}
    .fil0 {fill:#C49A4B;fill-rule:nonzero}
   ]]>
  </style>
 </defs>
 <g id="Capa_x0020_1">
  <metadata id="CorelCorpID_0Corel-Layer"/>
  <g id="_1596523506816">
   <path class="fil0" d="M6821.55 4766.24c22.27,0 44.53,7.41 59.38,25.97 18.54,18.54 25.97,37.1 25.97,59.36 0,96.49 -37.11,192.95 -111.32,281.98 -59.37,70.5 -148.42,144.72 -263.47,211.51 -55.64,33.38 -115.03,63.07 -178.11,92.77 -63.07,29.67 -129.87,59.36 -196.66,89.05 59.38,148.43 100.18,300.52 126.16,463.8 25.99,163.26 33.41,326.49 22.28,489.77 -14.85,174.39 -44.55,330.21 -96.49,467.5 -48.23,137.3 -115.03,256.04 -200.38,345.06 -70.5,81.63 -144.7,148.42 -218.92,196.65 -74.22,51.96 -144.73,89.06 -215.22,118.75 -70.51,29.69 -137.3,48.24 -204.09,59.38 -66.78,11.13 -122.45,18.55 -174.39,18.55 -160.68,0 -238.24,-0.52 -397.01,-63.09 -122.46,-48.23 -233.77,-115.02 -330.21,-196.67 -85.36,-74.19 -152.15,-155.84 -207.8,-248.61 -55.66,-89.05 -89.06,-181.81 -103.91,-278.3 -40.8,-218.93 18.56,-422.98 174.4,-612.21 126.16,-152.13 326.52,-296.82 597.39,-434.11 111.31,-59.38 230.06,-111.33 356.19,-163.28 122.45,-51.95 248.62,-100.18 371.02,-148.42 -29.69,-77.94 -66.79,-159.56 -115.02,-241.2 -48.24,-81.64 -103.9,-159.57 -163.28,-230.05 -63.08,-70.52 -133.57,-129.88 -211.51,-178.12 -77.92,-48.23 -163.26,-77.93 -252.31,-92.78l-66.8 0c-22.26,0 -40.82,-7.41 -59.38,-25.97 -14.83,-18.54 -22.26,-37.1 -22.26,-59.36 0,-22.26 7.43,-44.54 25.97,-59.36 18.57,-18.56 37.11,-26 59.38,-26l74.22 0c148.43,0 289.38,-44.51 415.54,-133.57 126.18,-89.05 230.08,-200.38 319.1,-337.65 85.34,-137.27 152.13,-285.66 196.65,-445.22 44.53,-159.57 59.39,-311.68 51.96,-456.39 -14.85,-192.96 -59.38,-359.9 -133.58,-493.48 -74.23,-137.3 -166.99,-226.35 -274.59,-274.58 -107.62,-44.54 -226.36,-37.11 -352.49,25.97 -126.16,63.08 -248.62,196.67 -367.31,397.01 -92.78,155.85 -181.82,341.34 -274.6,560.26 -89.04,215.23 -178.1,463.8 -259.73,742.11 -70.52,237.48 -129.88,471.21 -185.55,697.57 -55.66,230.04 -100.17,434.1 -137.28,612.22 -37.11,181.83 -63.1,326.51 -81.64,434.11 -18.56,111.31 -29.69,166.98 -29.69,170.69 -7.41,40.81 -44.52,74.21 -103.9,100.19 -59.36,25.98 -122.45,44.52 -189.24,48.23 -66.78,3.72 -122.45,-7.41 -174.4,-33.38 -48.23,-25.98 -66.79,-74.23 -55.67,-144.72l74.23 -415.57c37.1,-192.95 77.9,-411.85 118.73,-660.46 40.81,-244.91 74.22,-493.47 92.76,-745.81 18.57,-252.32 25.97,-497.18 14.85,-730.95 -11.14,-237.49 -51.95,-441.54 -126.15,-615.95 -59.39,-141.01 -137.31,-244.9 -233.78,-311.65 -96.48,-66.79 -196.66,-100.18 -304.24,-100.18 -107.6,0 -218.94,25.96 -330.22,81.61 -111.31,55.68 -215.21,133.6 -307.94,237.5 70.49,29.69 129.88,59.36 181.82,96.47 122.45,89.06 230.06,207.81 319.09,356.2 85.33,137.28 148.42,289.38 192.95,456.36 44.53,170.69 66.8,337.65 66.8,500.9 0,241.2 -44.55,437.83 -137.31,589.97 -59.36,100.19 -137.28,174.39 -233.78,215.21 -96.46,44.54 -192.94,59.38 -296.82,51.95 -103.89,-7.41 -200.36,-40.81 -296.8,-96.46 -96.49,-55.67 -174.41,-129.89 -233.76,-222.66 -59.39,-92.75 -107.62,-200.36 -137.31,-319.07 -29.68,-118.73 -44.51,-252.32 -44.51,-397 0,-100.2 7.4,-204.1 22.25,-304.25 14.85,-103.89 37.1,-204.08 70.51,-304.24 40.8,-144.71 96.47,-278.29 163.26,-397 -92.78,-40.82 -178.11,-55.65 -259.75,-44.52 -81.63,11.13 -166.97,40.8 -259.74,81.63 66.79,103.89 107.61,218.93 122.45,341.35 18.54,141 0,267.16 -51.96,371.03 -66.79,137.28 -178.11,207.8 -330.21,207.8 -122.45,0 -218.93,-33.41 -285.67,-96.49 -70.52,-59.36 -103.9,-144.72 -103.9,-248.61 0,-100.18 33.38,-207.8 100.18,-315.37 66.8,-111.33 163.28,-211.51 285.69,-304.23 -48.25,-40.82 -111.32,-70.51 -189.25,-92.77 -77.92,-22.26 -170.69,-22.26 -278.31,-3.72 -22.26,7.43 -44.51,0 -63.07,-14.84 -18.55,-14.85 -29.69,-33.38 -37.11,-55.66 -7.41,-22.27 0,-44.53 14.85,-66.78 14.84,-18.57 33.39,-33.41 55.66,-40.82 267.16,-44.54 482.34,14.84 649.32,174.39 100.2,-55.65 211.51,-96.47 333.93,-129.87 122.46,-33.39 256.05,-48.24 397,-48.24 14.84,0 25.97,0 37.1,3.72 11.13,0 22.27,3.71 37.13,3.71 55.64,-70.51 115.02,-129.87 174.39,-185.54 63.07,-55.66 126.17,-103.89 196.66,-148.44 185.54,-111.3 389.59,-170.69 612.24,-170.69 307.94,0 552.85,103.9 727.24,315.37 129.87,155.85 218.93,371.03 267.18,649.34 37.09,226.35 51.94,493.49 40.81,805.18 163.26,-519.46 333.93,-935 515.75,-1239.29 122.43,-204.07 241.18,-359.91 363.6,-460.08 144.72,-122.46 296.81,-185.54 456.38,-185.54 189.23,0 359.89,48.23 508.31,144.73 137.31,85.33 252.34,207.78 337.65,359.89 59.36,100.18 100.18,211.51 129.87,333.93 29.69,122.43 40.82,244.91 33.39,371.03 -7.42,267.16 -77.92,515.74 -211.5,738.38 -92.76,155.85 -207.79,285.67 -345.05,385.86 -137.31,100.2 -296.82,178.13 -471.23,226.36 44.54,18.56 85.36,37.1 122.46,59.36 40.81,22.28 77.93,48.25 118.74,74.23 174.39,129.87 311.66,293.1 419.26,493.46 66.8,-29.67 129.87,-55.64 189.26,-85.33 59.36,-25.97 115.02,-55.67 163.26,-89.05 196.66,-115.03 293.1,-230.06 293.1,-345.06 0,-22.26 7.43,-44.54 25.97,-59.38 18.56,-18.54 37.11,-25.97 59.39,-25.97l-3.5 18.68zm-2363.54 1639.98c-66.79,77.93 -107.61,159.56 -126.18,241.21 -18.54,85.33 -18.54,163.26 -3.71,241.18 14.85,77.93 44.53,152.15 92.77,222.65 44.53,70.5 100.2,129.86 163.28,181.83 170.69,152.14 333.93,215.21 489.78,189.24 155.84,-25.98 311.64,-126.16 463.79,-300.53 59.36,-63.09 107.61,-144.72 148.41,-248.61 40.83,-100.2 70.52,-211.5 85.36,-330.21 18.56,-118.75 25.98,-244.92 22.26,-378.46 -3.7,-133.59 -18.55,-263.46 -48.23,-393.28l-29.69 -122.47c-118.75,44.54 -237.49,92.77 -363.6,144.72 -122.46,48.23 -237.49,100.18 -348.78,159.57 -111.32,55.64 -211.51,118.73 -304.23,181.82 -92.77,66.79 -174.41,133.58 -237.49,211.5l-3.74 -0.16zm-2474.88 -1703.07c66.79,96.47 126.17,159.55 181.83,185.53 55.66,25.96 103.9,25.96 148.42,-3.71 44.54,-25.97 81.65,-74.22 111.33,-141.02 29.67,-66.79 51.96,-140.99 70.5,-226.33 14.84,-85.35 25.97,-170.69 25.97,-263.46 0,-92.77 -3.71,-178.13 -18.54,-252.33 -29.7,-152.13 -66.8,-281.98 -111.33,-389.58 -44.52,-111.33 -103.91,-207.8 -174.41,-300.54 -37.1,-48.22 -89.06,-100.17 -152.13,-155.84 -74.21,137.3 -133.59,289.39 -170.69,448.94 -40.83,159.58 -59.37,319.09 -59.37,474.93 0,122.47 14.85,241.21 40.82,345.06 25.98,107.62 63.08,196.67 111.31,274.59l-3.71 3.76zm-671.55 -953.61c37.1,-77.93 48.23,-170.69 33.39,-274.59 -14.83,-100.18 -48.23,-192.94 -100.19,-274.59 -111.31,74.21 -192.94,159.56 -248.61,248.62 -55.67,92.76 -81.64,170.69 -81.64,241.19 0,51.96 14.84,92.76 48.25,118.75 33.39,33.39 92.77,51.94 170.69,51.94 77.93,0 137.28,-37.11 178.11,-111.32zm6942.18 1024.11c22.26,7.43 40.83,18.56 51.96,40.82 11.12,18.55 14.84,40.82 7.41,66.8 0,0 -11.14,37.1 -29.68,107.6 -18.57,70.5 -44.54,166.98 -81.63,281.97 -33.41,115.03 -74.21,248.61 -122.47,393.3 -48.23,148.42 -100.18,296.8 -163.26,448.96 -141,363.59 -278.31,649.32 -411.84,857.07 -189.25,285.7 -371.03,430.42 -545.44,430.42l-3.7 0c-92.77,0 -170.7,-37.13 -230.08,-107.62 -85.33,-96.48 -137.28,-263.45 -159.56,-493.49 -22.26,-230.05 -14.84,-545.43 22.28,-938.72 14.84,-159.56 33.39,-322.78 55.64,-497.18 22.29,-170.69 48.26,-345.06 74.23,-519.47 25.97,-174.39 55.65,-341.34 85.33,-508.32 29.7,-166.97 55.68,-326.51 81.65,-478.64 33.38,-170.69 59.36,-326.51 85.34,-467.52 25.97,-140.99 44.53,-267.15 59.38,-378.44 7.41,-44.53 37.1,-77.92 96.47,-107.61 59.38,-25.97 118.73,-44.51 185.53,-48.24 66.79,-3.71 126.18,7.42 174.41,33.39 51.95,25.98 70.49,74.23 59.36,144.73 -18.54,111.32 -37.11,241.19 -59.36,389.59 -22.26,144.71 -51.94,304.24 -81.65,478.63 -25.97,148.42 -51.94,307.94 -81.63,471.22 -29.67,163.26 -55.64,333.92 -85.34,504.61 -25.97,170.68 -51.94,341.35 -74.21,508.32 -22.27,170.69 -40.81,330.21 -55.65,486.06 -18.58,170.69 -29.71,322.8 -33.42,460.09 -3.7,137.29 -3.7,259.75 3.71,371.04 7.42,103.9 18.58,185.52 29.71,248.6 11.12,63.1 25.97,100.2 44.51,118.74 18.56,18.56 44.53,11.13 77.92,-18.54 33.4,-29.69 77.94,-89.05 133.59,-170.69 66.79,-100.19 133.59,-222.65 200.38,-359.9 66.8,-137.29 133.59,-293.11 200.38,-467.52 59.36,-148.41 111.31,-296.81 159.54,-441.52 48.26,-144.71 89.06,-274.59 122.46,-389.6 33.4,-115.01 59.37,-207.79 77.93,-278.29 18.56,-70.5 29.69,-107.6 29.69,-111.32 7.41,-22.25 18.54,-40.82 40.82,-51.94 22.27,-11.13 44.52,-14.86 66.78,-7.43l-7.49 0.04zm2096.37 25.97c18.56,14.85 29.7,33.4 29.7,59.38 0,25.97 -7.43,44.52 -22.26,63.07 -70.51,77.93 -159.57,137.3 -270.89,178.11 -111.31,40.82 -237.49,63.08 -378.44,63.08 -25.97,0 -51.96,0 -77.93,0 -25.97,0 -51.95,0 -77.92,-3.7 -11.13,107.6 -33.4,218.93 -63.09,341.35 -29.68,118.74 -77.93,233.76 -144.71,345.05 -111.33,204.08 -263.45,330.21 -456.38,382.16l-3.7 0c-63.1,14.84 -122.46,22.26 -181.83,22.26 -92.78,0 -174.4,-11.14 -241.19,-33.39 -66.79,-22.26 -126.18,-48.23 -174.41,-85.36 -48.23,-33.38 -89.06,-74.21 -118.75,-118.72 -33.38,-44.54 -55.64,-85.36 -74.2,-126.18 -48.23,-111.31 -74.21,-226.33 -74.21,-345.05 0,-122.46 3.7,-230.05 18.54,-319.09 18.56,-100.17 40.82,-196.66 70.52,-281.96 29.68,-85.34 63.07,-148.42 96.48,-181.84 25.96,-25.96 59.36,-44.51 96.46,-59.35 37.1,-14.85 74.21,-22.28 111.33,-22.28 37.11,-3.7 70.49,0 103.89,7.43 33.4,7.42 59.37,18.56 81.63,29.69 -70.49,-74.22 -126.16,-155.85 -170.69,-241.2 -44.51,-85.34 -70.49,-174.4 -85.34,-259.75 -29.69,-159.56 -11.13,-307.94 55.67,-448.94 44.51,-96.49 111.3,-170.7 200.36,-230.06 89.05,-55.66 185.54,-77.92 289.41,-70.52 122.44,14.86 230.05,70.52 319.08,174.42 85.34,89.06 155.84,211.49 211.5,363.6 55.66,137.3 96.48,293.1 118.73,467.52 25.99,170.69 33.42,345.04 22.29,523.15 22.26,3.72 48.23,3.72 70.49,3.72 25.97,0 48.24,0 70.5,0 115.03,0 218.93,-14.85 307.95,-48.24 89.07,-33.41 159.55,-77.92 211.5,-133.59 14.84,-18.56 33.41,-29.69 59.39,-29.69 25.97,0 44.51,7.43 63.06,22.26l7.46 -7.34zm-957.26 155.82c7.41,-163.28 -3.71,-319.08 -22.28,-474.93 -22.25,-155.86 -55.64,-296.82 -107.61,-422.98 -14.83,-37.12 -33.39,-81.63 -55.64,-126.17 -22.28,-48.23 -51.95,-92.77 -85.37,-133.58 -33.38,-40.81 -70.48,-77.93 -111.31,-107.61 -40.81,-29.68 -85.35,-48.24 -137.29,-55.65l-25.98 0c-59.36,0 -111.31,18.55 -163.26,51.94 -51.95,33.39 -92.77,85.34 -126.17,152.13 -22.26,44.54 -40.82,92.77 -48.25,152.15 -7.41,59.36 -7.41,118.74 3.72,185.52 11.14,66.8 37.11,137.31 70.5,207.81 37.12,70.49 89.06,144.7 152.15,215.21 77.92,85.35 174.39,155.85 289.38,218.93 115.03,63.08 237.5,107.61 367.32,137.3l0.09 -0.07zm-196.64 801.46c44.53,-81.63 85.36,-174.41 115.03,-278.29 29.69,-103.9 51.95,-218.94 66.79,-345.06 -126.16,-25.97 -248.62,-66.8 -363.6,-122.46 -115.03,-55.65 -218.92,-122.44 -307.95,-200.36 -18.56,25.97 -44.53,70.48 -70.51,126.14 -25.97,59.39 -51.95,148.45 -74.21,270.88 -40.82,207.81 -37.1,385.87 7.41,538.02 29.7,92.76 70.52,163.26 122.47,207.8 51.95,44.52 111.31,70.49 170.69,70.49 59.37,0 122.44,-22.25 178.1,-70.49 59.39,-44.54 113.73,-104.84 154.56,-193.88l1.22 -2.79zm3109.33 -957.28c18.54,14.85 29.67,33.4 29.67,59.38 0,25.97 -7.41,44.52 -22.26,63.07 -70.49,77.93 -159.56,137.3 -270.88,178.11 -111.32,40.82 -237.48,63.08 -378.46,63.08 -25.97,0 -51.94,0 -77.91,0 -25.99,0 -51.96,0 -77.93,-3.7 -11.13,107.6 -33.39,218.93 -63.08,341.35 -29.68,118.74 -77.93,233.76 -144.72,345.05 -111.31,204.08 -263.46,330.21 -456.37,382.16l-3.71 0c-63.07,14.84 -122.45,22.26 -181.82,22.26 -92.78,0 -174.41,-11.14 -241.2,-33.39 -66.78,-22.26 -126.16,-48.23 -174.4,-85.36 -48.23,-33.38 -89.05,-74.21 -118.73,-118.72 -33.41,-44.54 -55.68,-85.36 -74.22,-126.18 -48.25,-111.31 -74.22,-226.33 -74.22,-345.05 0,-122.46 3.72,-230.05 18.56,-319.09 18.55,-100.17 40.82,-196.66 70.49,-281.96 29.69,-85.34 63.1,-148.42 96.49,-181.84 25.97,-25.96 59.36,-44.51 96.48,-59.35 37.11,-14.85 74.21,-22.28 111.31,-22.28 37.11,-3.7 70.52,0 103.9,7.43 33.4,7.42 59.38,18.56 81.65,29.69 -70.52,-74.22 -126.18,-155.85 -170.69,-241.2 -44.55,-85.34 -70.52,-174.4 -85.35,-259.75 -29.68,-159.56 -11.14,-307.94 55.65,-448.94 44.54,-96.49 111.33,-170.7 200.39,-230.06 89.04,-55.66 185.53,-77.92 289.38,-70.52 122.46,14.86 230.08,70.52 319.08,174.42 85.36,89.06 155.85,211.49 211.51,363.6 55.67,137.3 96.49,293.1 118.75,467.52 25.97,170.69 33.38,345.04 22.25,523.15 22.28,3.72 48.24,3.72 70.52,3.72 25.97,0 48.23,0 70.49,0 115.04,0 218.94,-14.85 307.95,-48.24 89.05,-33.41 159.57,-77.92 211.51,-133.59 14.85,-18.56 33.39,-29.69 59.36,-29.69 26,0 44.54,7.43 63.1,22.26l7.46 -7.34zm-957.3 155.82c7.42,-163.28 -3.71,-319.08 -22.25,-474.93 -22.26,-155.86 -55.67,-296.82 -107.61,-422.98 -14.84,-37.12 -33.4,-81.63 -55.67,-126.17 -22.26,-48.23 -51.95,-92.77 -85.33,-133.58 -33.4,-40.81 -70.52,-77.93 -111.33,-107.61 -40.82,-29.68 -85.33,-48.24 -137.29,-55.65l-25.97 0c-59.38,0 -111.33,18.55 -163.28,51.94 -51.95,33.39 -92.76,85.34 -126.16,152.13 -22.26,44.54 -40.82,92.77 -48.23,152.15 -7.43,59.36 -7.43,118.74 3.7,185.52 11.14,66.8 37.11,137.31 70.51,207.81 37.1,70.49 89.05,144.7 152.13,215.21 77.92,85.35 174.4,155.85 289.4,218.93 115.04,63.08 237.47,107.61 367.32,137.3l0.06 -0.07zm-196.66 801.46c44.53,-81.63 85.36,-174.41 115.03,-278.29 29.69,-103.9 51.95,-218.94 66.79,-345.06 -126.14,-25.97 -248.61,-66.8 -363.6,-122.46 -115.03,-55.65 -218.93,-122.44 -307.94,-200.36 -18.57,25.97 -44.54,70.48 -70.52,126.14 -25.97,59.39 -51.94,148.45 -74.2,270.88 -40.83,207.81 -37.1,385.87 7.42,538.02 29.68,92.76 70.5,163.26 122.46,207.8 51.94,44.52 111.3,70.49 170.69,70.49 59.36,0 122.43,-22.25 178.1,-70.49 59.38,-44.54 107.61,-111.33 148.44,-200.38l7.33 3.71zm4510.1 -982.51c55.65,14.85 72.29,51.2 64.86,106.88 0,0 -7.41,37.1 -22.25,107.6 -14.85,70.5 -37.11,166.98 -66.81,278.29 -29.68,115.04 -63.07,244.91 -103.89,393.31 -40.82,148.41 -85.34,296.81 -137.29,445.24 -115.04,359.9 -233.78,641.89 -359.9,853.36 -25.97,44.54 -55.65,92.78 -85.35,144.72 -33.39,48.26 -66.79,96.49 -111.31,137.31 -40.82,40.82 -89.06,77.93 -137.31,103.9 -51.95,25.97 -107.61,40.81 -166.97,40.81 -100.19,0 -181.82,-37.1 -248.62,-107.62 -92.77,-100.17 -137.28,-293.1 -133.59,-571.4 0,-115.03 7.43,-237.47 22.28,-371.03 14.83,-129.87 29.68,-263.44 44.52,-397 14.84,-122.45 25.97,-237.48 40.81,-348.76 11.13,-111.33 18.56,-215.23 22.26,-311.67 3.72,-122.44 -3.7,-207.79 -18.54,-263.45 -14.84,-51.96 -29.69,-89.06 -44.53,-107.6 -11.13,-14.84 -29.69,-22.28 -55.66,-22.28 -11.14,0 -29.68,3.72 -51.96,14.85 -22.26,11.13 -51.94,37.1 -89.05,77.92 -37.11,40.82 -77.93,103.9 -126.15,185.55 -48.24,81.63 -100.19,192.94 -152.14,333.91 -33.4,85.34 -63.1,163.26 -89.07,241.19 -25.97,77.92 -51.95,148.44 -70.49,211.51 -18.56,63.07 -33.4,111.33 -44.53,152.13 -11.13,40.82 -14.84,59.39 -14.84,59.39 -11.15,44.53 -48.24,77.92 -107.62,96.46 -59.36,18.55 -122.44,22.27 -189.24,14.84 -66.8,-7.41 -122.45,-22.26 -170.69,-48.23 -48.24,-25.97 -63.08,-59.36 -48.24,-103.9 14.86,-66.79 29.7,-137.29 44.53,-215.23 14.84,-66.78 29.68,-144.7 40.81,-230.05 14.85,-85.34 25.98,-178.11 40.82,-274.59 14.85,-122.44 25.97,-230.06 29.69,-319.08 7.41,-92.77 7.41,-174.39 3.71,-241.18 -3.71,-137.32 -11.14,-230.08 -22.27,-285.7 -14.84,-55.67 -29.67,-77.92 -48.23,-70.5 -18.56,7.43 -44.53,40.82 -74.2,103.89 -29.7,63.1 -63.1,141.02 -100.21,241.2 -63.08,159.57 -122.44,333.94 -174.39,523.16 -51.95,189.26 -103.9,378.47 -152.14,560.29 -11.14,40.82 -22.26,81.64 -33.39,118.74 -11.14,40.82 -22.27,81.62 -33.41,133.59 -11.13,48.24 -44.52,85.33 -100.18,107.59 -55.67,22.28 -115.03,33.41 -178.1,33.41 -63.09,0 -118.75,-11.13 -170.71,-37.11 -48.23,-25.97 -74.2,-63.07 -74.2,-111.33l29.67 -1309.78c0,-37.11 25.97,-70.51 81.65,-92.77 55.66,-25.97 115.01,-40.81 178.1,-44.54 66.79,-3.71 122.46,3.73 178.12,25.98 51.95,22.26 81.63,59.39 81.63,115.04l-14.84 563.99c33.4,-115.05 66.8,-230.07 100.19,-337.64 33.38,-111.31 70.5,-215.21 111.31,-315.37 85.35,-211.51 166.99,-367.33 252.33,-467.51 85.34,-100.18 174.41,-148.43 270.88,-148.43 103.9,0 189.25,40.82 256.05,122.45 81.63,107.62 126.14,270.88 137.28,493.49 7.43,66.8 7.43,141.01 7.43,218.93 0,77.92 -7.43,163.26 -14.85,252.33 25.98,-55.66 51.96,-103.91 74.21,-148.44 25.97,-44.53 48.24,-85.33 74.21,-122.46 33.41,-44.51 70.51,-92.76 118.74,-137.27 44.55,-44.55 96.49,-81.65 148.44,-111.34 51.94,-29.67 111.31,-51.94 174.4,-66.78 63.09,-14.85 122.45,-11.14 185.52,7.43 25.99,7.41 55.67,14.84 85.36,33.38 33.39,14.84 63.07,37.12 96.46,66.79 33.42,29.69 63.1,66.8 92.78,115.03 29.68,48.25 51.94,107.62 70.5,178.12 22.27,92.77 29.7,215.21 14.85,371.03 -14.85,155.85 -29.7,330.21 -55.67,519.46 -14.84,137.29 -29.68,278.29 -44.53,415.54 -14.83,137.32 -18.54,263.47 -18.54,378.46 0,189.25 14.84,296.81 44.53,315.38 29.67,18.55 85.34,-40.82 163.26,-174.41 111.33,-192.95 230.06,-467.51 345.06,-820.02 48.23,-152.14 92.76,-296.81 133.59,-441.52 40.81,-144.73 74.2,-274.6 100.17,-385.88 29.7,-111.32 51.96,-204.09 66.8,-274.6 14.85,-70.5 22.26,-107.61 22.26,-107.61 14.84,-55.65 48.25,-77.92 103.9,-70.49l1.93 0.7z"/>
   <path class="fil1" d="M16297.98 755.26c22.25,-44.54 48.23,-85.35 74.2,-122.47 7.43,48.26 22.26,92.77 44.54,133.59 22.25,40.82 51.95,77.93 85.34,111.32 -40.83,159.56 -77.93,319.08 -115.04,478.64 -77.92,348.77 -155.84,701.29 -207.79,1053.76 107.61,-341.35 189.25,-693.87 270.87,-1038.92 7.44,-33.38 14.84,-66.78 22.28,-100.18 59.36,-14.84 111.31,-40.81 163.25,-66.79 29.71,-18.56 59.39,-37.1 85.35,-59.38 -11.13,96.48 -29.67,192.97 -55.64,285.69 -48.25,178.11 -115.04,356.18 -200.4,523.16 -81.63,166.99 -189.23,333.93 -293.1,486.08 -14.84,-181.85 -33.38,-382.18 -37.1,-567.71 -3.71,-189.25 0,-378.46 22.26,-563.99 18.56,-185.52 52.06,-374.96 137.4,-545.65l3.58 -7.15zm341.33 -378.49c-44.52,152.13 -89.05,304.23 -126.15,456.36 -7.44,-37.1 -22.27,-70.49 -37.11,-100.17 -22.27,-40.83 -51.95,-81.65 -92.76,-115.03 70.49,-96.49 159.56,-174.41 252.32,-244.9 0,0 0,3.7 0,3.7l3.7 0.04zm92.77 497.23c0,70.49 0,141 -7.41,207.8 -44.54,14.84 -85.36,33.38 -122.46,55.66 -44.53,25.98 -81.64,59.36 -122.46,92.75 59.39,-278.28 118.74,-560.26 163.28,-842.27 48.23,159.55 85.34,315.37 89.05,478.63l0 7.43zm-560.26 1573.21c159.55,-129.87 274.58,-281.97 385.86,-448.96 103.89,-166.98 192.96,-345.05 244.91,-538.01 59.36,-192.96 70.49,-397.01 55.65,-593.67 -7.41,-200.37 -81.63,-393.29 -166.98,-567.7l-18.54 -44.52 -33.41 29.69c-152.13,129.87 -278.3,281.96 -378.44,448.94 -92.76,170.69 -170.69,356.2 -211.51,549.15 -40.82,192.96 -37.1,393.29 -18.56,589.96 22.27,196.66 55.66,382.16 137.31,575.12l3.71 0z"/>
   <path class="fil1" d="M17162.47 1942.6c77.94,-77.93 167,-148.44 263.47,-200.39 -14.85,40.82 -25.98,77.92 -37.11,118.75 -11.13,40.82 -18.54,85.35 -18.54,133.58 -33.42,33.4 -66.8,63.09 -100.2,96.47 -185.52,185.54 -356.19,389.59 -508.32,604.82 -66.79,100.18 -129.87,204.09 -189.25,307.93 48.25,-129.87 103.89,-256.02 159.56,-382.16 107.62,-244.89 241.2,-486.06 430.39,-679zm645.64 -319.13c-129.89,96.49 -256.04,200.38 -374.74,307.95 7.41,-18.55 14.84,-37.09 22.25,-55.67 11.13,-48.23 14.85,-96.46 -3.71,-144.7 14.84,-7.42 25.97,-14.83 37.12,-22.28 100.18,-48.22 211.5,-74.19 319.08,-85.33l0 0.03zm-656.77 675.31c51.96,-59.36 103.92,-118.75 155.85,-174.41 159.56,-174.39 330.23,-337.62 504.62,-493.47 -55.65,192.95 -122.44,378.44 -211.51,552.86 -33.39,-11.13 -74.22,-11.13 -107.6,-11.13 -59.38,3.69 -111.33,22.25 -163.28,37.1 -63.07,22.25 -122.46,51.95 -178.1,89.05l0.02 0zm-118.7 526.88c-189.23,185.53 -348.76,400.72 -482.34,623.36 -70.51,111.31 -126.17,230.05 -185.53,345.06 -55.67,111.35 -90.99,223.49 -148.44,356.18 70.51,-233.76 133.6,-482.36 207.8,-719.84 3.71,-7.43 7.43,-14.83 7.43,-22.26 107.6,-237.49 233.78,-463.8 385.87,-679.01 89.06,-126.17 185.53,-252.33 285.68,-371.03 85.36,-25.98 170.69,-59.38 252.34,-89.05 51.94,-18.56 100.17,-37.13 152.12,-51.96 29.7,-7.43 55.67,-14.84 85.35,-14.84 -11.14,22.25 -22.27,44.51 -37.11,66.8 -129.87,211.49 -333.91,363.59 -519.45,552.85l-3.72 3.74zm-775.98 923.62c-11.08,66.8 -25.48,133.85 -32.9,200.64 -7.43,70.49 -18.55,129.87 -14.84,211.51 55.65,-100.19 141.01,-218.94 211.51,-333.92 70.49,-107.61 137.29,-218.93 215.2,-322.8 144.73,-211.51 311.67,-404.42 497.2,-582.54 92.77,-89.06 189.26,-174.39 281.97,-267.16 96.5,-92.76 178.12,-204.1 248.61,-319.08 133.6,-237.48 200.4,-497.2 248.62,-753.23l11.13 -55.67 -51.94 7.43c-285.68,33.39 -538.01,178.11 -734.68,371.03 -200.38,192.96 -367.31,419.27 -497.18,660.47 -133.59,244.89 -222.64,508.32 -293.11,775.47 -37.1,133.59 -63.07,267.17 -89.05,404.44l0 0 -0.54 3.41z"/>
   <path class="fil1" d="M14954.78 1126.29c24.61,73.76 21.16,253.25 37.11,348.8 -118.75,-178.11 -256.03,-337.63 -419.27,-471.21 119.29,14.46 281.16,55.1 382.16,122.41zm560.46 1119.09c22.3,296.82 22.09,587.69 3.53,884.51 -11.13,137.31 -18.55,270.87 -33.39,408.14 3.7,-126.16 14.84,-256.02 7.41,-382.16 -7.41,-137.29 -11.12,-278.31 -37.1,-411.85 -14.85,-137.28 -48.24,-274.59 -77.92,-408.14 -77.92,-267.16 -178.11,-526.86 -322.8,-764.36 -14.85,-22.25 -29.69,-40.81 -40.82,-63.08 22.27,-74.2 29.68,-148.42 25.97,-226.35 -3.7,-40.82 -11.13,-77.93 -25.97,-118.73 92.76,63.08 174.41,144.7 241.2,237.47 170.7,244.9 233.77,545.44 259.74,842.29l0.15 2.26zm-705.13 -547.68c48.24,25.97 92.75,48.23 137.29,74.21 63.08,33.38 129.86,70.51 196.67,103.9 66.79,155.84 122.46,311.64 166.97,474.92 70.51,263.46 111.33,534.3 126.18,805.18 7.41,66.8 7.41,129.88 7.41,196.66l-18.56 -148.42c-44.52,-274.59 -126.16,-541.73 -237.47,-794.05 -107.03,-247.29 -240.64,-481.32 -378.49,-712.4zm-256.05 -697.58c3.72,0 3.72,0 7.43,0 181.82,174.4 330.22,378.46 452.66,593.68 40.82,70.48 77.92,144.7 111.33,222.62 -7.43,-7.4 -14.85,-14.83 -25.97,-22.26 -37.11,-29.68 -74.23,-55.66 -115.03,-77.93 -40.83,-22.25 -85.36,-40.81 -129.88,-55.66 -22.27,-7.41 -44.53,-11.13 -66.8,-14.84 -59.37,-103.9 -111.32,-207.79 -159.55,-315.37 -40.83,-107.59 -66.8,-218.92 -70.51,-330.2l-3.68 -0.04zm-38.37 384.69c48.26,133.59 112.59,242.4 179.38,364.82 129.87,241.19 263.46,474.95 378.46,719.84 111.31,241.19 207.79,493.49 267.16,756.94l40.81 196.66c11.14,66.79 14.85,133.59 25.98,200.38l11.13 100.19 7.44 111.33c3.71,63.08 11.13,115.02 11.13,170.69 0,11.34 0,21.95 0,33.37 12.16,-19.92 11.12,-22.25 14.83,-33.37l7.42 -25.98 14.84 -55.66 29.7 -111.33c18.54,-74.21 37.1,-148.41 51.94,-222.64 29.69,-148.42 55.67,-300.52 70.5,-448.96 33.41,-300.51 44.53,-612.2 -7.42,-912.73 -48.23,-304.25 -152.13,-601.1 -330.2,-849.67 -174.41,-256.04 -467.52,-415.57 -775.5,-463.8l-40.82 -7.44 -7.41 44.55c-19.16,124.46 4.52,315.74 50.63,432.81z"/>
   <path class="fil1" d="M18824.76 3983.31c-37.12,-70.49 -100.21,-126.16 -170.69,-166.98 -74.23,-44.53 -159.56,-66.79 -244.92,-81.63 -85.33,-14.85 -170.69,-22.27 -256.03,-14.85 -40.82,0 -85.33,3.71 -126.16,11.14 118.75,-55.66 233.78,-115.04 356.19,-166.98 159.56,-74.22 322.78,-141.02 486.06,-207.81 141,-55.64 281.98,-115.02 426.7,-159.54 7.4,0 15.69,1.39 22.24,3.7 -100.17,296.83 -270.86,571.41 -493.47,786.62l0.08 -3.67zm-300.55 226.36c-33.38,-48.24 -77.91,-92.77 -122.43,-133.59 -63.1,-51.96 -137.3,-92.77 -211.5,-126.16 -74.23,-33.41 -155.85,-59.38 -233.78,-74.2 -55.66,-11.16 -115.05,-18.57 -174.4,-22.29 63.06,-33.38 126.14,-63.07 189.23,-96.46 144.72,7.42 289.41,18.53 430.4,44.52 81.65,14.84 159.57,33.4 233.78,63.07 70.5,29.69 133.59,66.8 189.25,122.47 -22.28,22.25 -48.25,44.51 -70.5,66.79 -70.52,59.36 -144.73,111.31 -222.65,155.85l-7.4 0zm-233.76 103.85c-40.82,18.56 -85.33,25.98 -126.16,37.12 -44.53,11.13 -85.35,22.26 -129.86,33.39l-270.89 55.67c-363.6,77.92 -723.56,159.56 -1079.74,270.88 -178.1,55.66 -352.46,122.44 -523.16,204.06 -37.1,18.58 -70.51,37.13 -107.61,59.39 155.85,-133.59 319.07,-263.45 486.05,-382.16 289.41,-200.38 586.26,-389.59 894.22,-556.56 103.89,-59.39 211.49,-111.33 319.07,-166.99 137.29,44.51 274.59,89.06 404.42,148.42 122.47,51.95 241.2,118.74 341.35,207.8 -66.79,37.12 -141.01,70.51 -215.22,92.76l7.53 -3.78zm-1806.94 148.44c259.74,-256.04 541.72,-489.78 834.86,-704.99 144.7,-107.61 300.53,-207.8 460.08,-296.82 159.56,-89.06 326.51,-166.98 500.9,-218.92 7.43,-3.71 18.56,-3.71 25.97,-7.44 0,55.67 -7.41,103.9 -14.83,155.84 -7.43,51.96 -18.56,103.91 -22.27,163.29 -293.1,126.15 -582.52,267.15 -864.5,419.26 -307.94,174.41 -608.51,363.61 -894.21,575.11 -204.07,155.86 -397,322.79 -575.1,504.61 -0.72,0.71 -32.55,21.84 -33.4,22.29 189.24,-211.52 378.44,-415.57 582.53,-612.23l-0.03 0zm2805.07 -1272.69c-315.36,81.63 -623.36,200.36 -927.59,322.78 -22.25,7.43 -40.82,18.56 -63.08,25.98 29.7,-40.82 48.24,-85.33 55.67,-137.29 11.13,-55.67 3.7,-126.17 -33.41,-170.69 311.67,-96.48 649.33,-111.33 964.7,-40.82l3.71 0.04zm-471.26 -89.06c-185.53,11.14 -367.3,51.96 -549.13,100.19 -356.18,103.9 -697.56,263.46 -1009.23,467.5 -311.66,204.09 -589.95,456.39 -845.96,723.55 -129.88,133.58 -248.61,274.58 -363.6,419.28 -59.38,70.48 -111.33,144.71 -166.99,222.63l-77.92 115.04 -37.12 59.35 -18.55 29.69 -7.42 14.85 -3.71 7.41 -2 5.65 -1.7 9.19c3.7,-3.7 7.41,-7.4 11.13,-11.13 45.33,-45.33 160.3,-133.68 207.8,-159.56 77.92,-48.23 159.57,-85.33 244.9,-118.73 166.97,-70.49 345.05,-118.75 523.16,-166.98 356.2,-92.77 716.12,-159.57 1079.74,-233.78 178.11,-37.1 363.6,-66.79 549.14,-133.59 181.82,-63.07 348.78,-170.69 493.49,-296.8 289.39,-256.05 482.33,-601.1 567.69,-968.41l7.42 -37.11c-159.9,-53.24 -431.6,-55.03 -601.14,-48.24z"/>
   <path class="fil1" d="M15306.21 4918.85c-40.81,-85.35 -91.68,-163.79 -147.34,-238 -115.04,-148.43 -244.91,-281.97 -382.16,-411.85 -270.87,-256.04 -560.27,-486.07 -853.37,-712.41l-222.65 -166.98c-37.1,-25.97 -70.51,-55.66 -103.89,-85.35 -33.42,-29.69 -70.52,-55.67 -96.49,-89.06 -70.5,-66.79 -129.87,-144.71 -185.54,-222.64 59.38,3.72 122.47,3.72 181.83,7.42 85.36,7.43 174.41,7.43 259.75,18.55 85.35,7.44 170.69,22.27 256.04,40.83 63.08,14.84 126.15,33.38 185.54,59.36 48.23,63.09 96.46,126.18 144.71,189.26 207.8,270.87 404.43,552.84 582.53,845.95 92.76,144.73 174.41,296.82 252.32,448.95l107.62 233.77 14.84 44.54c7.42,22.26 11.14,44.51 18.55,63.09 -3.7,-7.43 -7.41,-14.86 -11.13,-22.28l-1.16 -3.15zm-2243.72 -3154.37c3.72,0 7.43,0 11.13,3.71 215.23,241.2 422.98,486.06 630.77,730.97 155.85,189.24 311.67,378.45 463.8,575.12 -44.51,-25.98 -89.06,-48.23 -137.29,-63.09 -85.36,-33.4 -174.41,-48.23 -263.45,-59.37 -89.06,-11.14 -178.12,-11.14 -267.18,-3.7l-133.57 14.84c-18.57,3.7 -40.82,7.42 -59.38,11.13 -37.1,-63.09 -74.21,-126.18 -103.9,-192.96 -141,-311.66 -185.53,-671.6 -141,-1016.65l0.07 0zm912.75 493.48c51.94,44.53 96.49,96.49 144.72,144.72 -40.83,55.66 -66.8,111.32 -89.06,170.7 -18.56,55.65 -37.1,115.02 -40.81,178.1 -81.65,-96.47 -159.57,-192.96 -244.91,-285.68 -211.5,-241.2 -434.12,-471.22 -664.18,-697.56 333.93,77.92 645.62,248.61 894.2,489.76l0.04 -0.04zm641.9 879.36c174.42,319.09 322.79,653.04 448.96,998.1 63.08,170.69 118.74,341.34 174.4,512.03 -74.2,-181.82 -166.97,-356.2 -263.45,-526.89 -170.69,-300.51 -367.31,-582.53 -575.12,-857.07 -129.86,-166.99 -259.74,-330.22 -397,-493.5 40.82,-55.65 66.8,-111.31 89.06,-170.69 18.53,-55.65 37.1,-115.03 40.82,-178.1 70.48,81.63 137.28,163.25 200.37,252.32 103.9,148.42 200.36,304.24 285.68,467.5l-3.72 -3.7zm782.93 2029.62l-3.72 -51.95 -7.42 -70.5 -22.27 -137.3c-14.83,-92.76 -33.38,-181.82 -55.64,-270.87 -40.82,-181.83 -89.06,-359.91 -144.72,-534.29 -115.05,-352.49 -256.05,-697.58 -448.96,-1016.65 -192.96,-319.1 -430.41,-612.24 -705,-860.8 -141,-122.46 -285.67,-237.49 -448.96,-326.52 -163.25,-89.04 -333.91,-163.26 -515.74,-211.5l-37.11 -11.14 -7.41 37.11c-81.63,371.03 -55.65,764.36 92.76,1120.54 74.22,174.4 178.13,345.06 315.39,478.64 137.27,141.01 289.38,244.91 434.1,356.19 293.11,222.64 589.95,441.53 871.93,679.03 137.3,118.74 278.31,241.17 397,374.74 59.37,66.78 118.75,137.29 166.98,215.2 25.97,37.12 48.25,77.93 66.8,118.75 11.13,18.57 18.56,40.83 25.97,59.37 8.28,24.8 25.97,47.1 25.97,74.22 0,-16.96 0.05,-15.85 0.05,-22.27z"/>
   <path class="fil1" d="M14231.27 2165.19c103.91,22.26 211.51,-40.82 233.79,-148.41 22.26,-103.91 -40.82,-211.51 -148.43,-233.79 -103.9,-22.26 -211.52,40.82 -233.78,148.43 -22.26,103.89 40.83,211.52 148.42,233.77z"/>
   <path class="fil1" d="M17830.37 2988.92c103.9,22.27 211.51,-40.8 233.77,-148.42 22.26,-103.89 -40.82,-211.51 -148.43,-233.76 -103.9,-22.29 -211.52,40.81 -233.77,148.4 -25.98,103.93 40.82,211.52 148.43,233.78z"/>
   <path class="fil1" d="M15782.22 4150.29c-103.89,-22.26 -211.51,40.81 -233.76,148.43 -22.26,103.9 40.81,211.51 148.43,233.76 103.9,25.99 211.49,-40.81 233.76,-148.41 22.27,-103.91 -40.81,-211.51 -148.43,-233.78z"/>
  </g>
 </g>
</svg>
